arm26_states
nRows=14
nColumns=17

# SIMM Motion File Header:
name arm26_states
datacolumns 17
datarows 14
otherdata 1
range 0.00000000000000000000 0.00008191000000000001
endheader
time	r_shoulder_elev	r_elbow_flex	r_shoulder_elev_u	r_elbow_flex_u	TRIlong.activation	TRIlong.fiber_length	TRIlat.activation	TRIlat.fiber_length	TRImed.activation	TRImed.fiber_length	BIClong.activation	BIClong.fiber_length	BICshort.activation	BICshort.fiber_length	BRA.activation	BRA.fiber_length
      0.00000000000000000000	      0.00000000000000000000	      0.00000000000000000000	      0.00000000000000000000	      0.00000000000000000000	      0.01000000000000000000	      0.13654181658146625000	      0.01000000000000000000	      0.07065119676537239000	      0.01000000000000000000	      0.06569679043939456700	      0.01000000000000000000	      0.14840752511492677000	      0.01000000000000000000	      0.14766823914201072000	      0.01000000000000000000	      0.09339079059267638100
      0.00000001000000000000	     -0.00000000000002550487	      0.00000000000009132876	     -0.00000510097282436148	      0.00001826574484831815	      0.01000000007806959400	      0.13654181658144496000	      0.01000000011510221800	      0.07065119676500143700	      0.01000000011510221800	      0.06569679043893508800	      0.01000001335344782000	      0.14840752511488511000	      0.01000000283920147500	      0.14766823914185342000	      0.01000000686678793900	      0.09339079059267450800
      0.00000003000000000000	     -0.00000000000022954383	      0.00000000000082195871	     -0.00001530291846025245	      0.00005479723450825644	      0.01000000023420843800	      0.13654181658140238000	      0.01000000034530615200	      0.07065119676425951600	      0.01000000034530615200	      0.06569679043801610100	      0.01000004006035904100	      0.14840752511479949000	      0.01000000851760495800	      0.14766823914153823000	      0.01000002060034096600	      0.09339079059266980300
      0.00000007000000000000	     -0.00000000000124973856	      0.00000000000447510827	     -0.00003570680968086721	      0.00012786021368189294	      0.01000000054648473800	      0.13654181658131717000	      0.01000000080571201500	      0.07065119676277563400	      0.01000000080571201500	      0.06569679043617808500	      0.01000009347424380700	      0.14840752511461905000	      0.01000001987441406600	      0.14766823914090546000	      0.01000004806735561900	      0.09339079059265659200
      0.00000015000000000000	     -0.00000000000573859530	      0.00000000002054896608	     -0.00007651459191886675	      0.00027398617144904619	      0.01000000117103180000	      0.13654181658114647000	      0.01000000172651572200	      0.07065119675980761900	      0.01000000172651572200	      0.06569679043250184500	      0.01000020030226264400	      0.14840752511422148000	      0.01000004258804084100	      0.14766823913963037000	      0.01000010300101931300	      0.09339079059261500000
      0.00000031000000000000	     -0.00000000002451017779	      0.00000000008776691621	     -0.00015813015559316092	      0.00056623808470071253	      0.01000000242010376900	      0.13654181658080400000	      0.01000000356809106800	      0.07065119675387064600	      0.01000000356809106800	      0.06569679042514853200	      0.01000041395929752500	      0.14840752511327956000	      0.01000008801532863100	      0.14766823913704191000	      0.01000021286688427900	      0.09339079059247114300
      0.00000063000000000000	     -0.00000000010122881829	      0.00000000036248375283	     -0.00032136127982449559	      0.00115074190237583710	      0.01000000491815909200	      0.13654181658011477000	      0.01000000725111348100	      0.07065119674199289700	      0.01000000725111348100	      0.06569679041043857700	      0.01000084127735603400	      0.14840752511080854000	      0.01000017887004116800	      0.14766823913171193000	      0.01000043259276462900	      0.09339079059194073400
      0.00000127000000000000	     -0.00000000041136799680	      0.00000000147304115892	     -0.00064782351653460942	      0.00231974950483194560	      0.01000000991391529100	      0.13654181657871919000	      0.01000001461664522400	      0.07065119671822223100	      0.01000001461664522400	      0.06569679038100537100	      0.01000169592942744600	      0.14840752510351829000	      0.01000036058001404700	      0.14766823912043980000	      0.01000087202112788200	      0.09339079058990944200
      0.00000255000000000000	     -0.00000000165845391145	      0.00000000593865081295	     -0.00130074794867460300	      0.00465776459751051070	      0.01000001990401000300	      0.13654181657585976000	      0.01000002934565653200	      0.07065119667062040600	      0.01000002934565653200	      0.06569679032208601600	      0.01000340529738308700	      0.14840752507954891000	      0.01000072400215086000	      0.14766823909544757000	      0.01000175078427158000	      0.09339079058196719800
      0.00000511000000000000	     -0.00000000665985576613	      0.00000002384784895826	     -0.00260659669361730210	      0.00933379448849895600	      0.01000003987852952000	      0.13654181656986877000	      0.01000005879547165000	      0.07065119657517621200	      0.01000005879547165000	      0.06569679020403700100	      0.01000682428850752100	      0.14840752499408594000	      0.01000145085518739900	      0.14766823903567616000	      0.01000350793628364800	      0.09339079055058244200
      0.00001023000000000000	     -0.00000002669157881416	      0.00000009557815931905	     -0.00521829407153520320	      0.01868585432671988600	      0.01000007980489570800	      0.13654181655680647000	      0.01000011766228170100	      0.07065119638333738900	      0.01000011766228170100	      0.06569678996711023100	      0.01001366329130415200	      0.14840752467331389000	      0.01000290459630166100	      0.14766823887702568000	      0.01000702074365351200	      0.09339079042595852000
      0.00002047000000000000	     -0.00000010687071014805	      0.00000038268647332479	     -0.01044169128850000600	      0.03738998405333574000	      0.01000015956699085000	      0.13654181652642605000	      0.01000023526469946200	      0.07065119599595153000	      0.01000023526469946200	      0.06569678949004088800	      0.01002734537665092200	      0.14840752343438618000	      0.01000581221861123100	      0.14766823840361429000	      0.01001404037535087400	      0.09339078993046146000
      0.00004095000000000000	     -0.00000042769199882047	      0.00000153149492056492	     -0.02088851861511978300	      0.07479836159941900800	      0.01000031872906501800	      0.13654181644916416000	      0.01000046994535213300	      0.07065119520709273200	      0.01000046994535213300	      0.06569678852383008200	      0.01005472584687684000	      0.14840751858292947000	      0.01001162802288563900	      0.14766823683490168000	      0.01002805573514636100	      0.09339078796375037400
      0.00008191000000000001	     -0.00000171119245580762	      0.00000612749928224058	     -0.04178248568983939500	      0.14961620099138509000	      0.01000063560820473700	      0.13654181623278389000	      0.01000093721492861100	      0.07065119357896045000	      0.01000093721492861100	      0.06569678654941085700	      0.01010955182990379500	      0.14840749951190912000	      0.01002326186471445700	      0.14766823123019157000	      0.01005599106846406500	      0.09339078020061941700
